<?xml version="1.0" encoding="UTF-8" standalone="no"?>
<svg width="400px" height="400px" viewBox="0 0 400 400" version="1.1" xmlns="http://www.w3.org/2000/svg" xmlns:xlink="http://www.w3.org/1999/xlink">
    <!-- Generator: Sketch 41 (35326) - http://www.bohemiancoding.com/sketch -->
    <title>access</title>
    <desc>Created with Sketch.</desc>
    <defs></defs>
    <g id="poster-terminology-service" stroke="none" stroke-width="1" fill="none" fill-rule="evenodd">
        <g id="access" fill="#000000">
            <polygon id="Shape" points="50.87555 244.840104 50.87555 190.848958 28.2346 190.848958 28.2346 202.446354 37.0749 202.446354 37.0749 244.840104"></polygon>
            <polygon id="Shape" points="119.13055 202.446354 127.9672 202.446354 127.9672 244.840104 141.7715 244.840104 141.7715 190.848958 119.13055 190.848958"></polygon>
            <polygon id="Shape" points="77.02415 266.744271 85.8608 266.744271 85.8608 309.130729 99.6651 309.130729 99.6651 255.135937 77.02415 255.135937"></polygon>
            <polygon id="Shape" points="77.02415 329.623958 85.8608 329.623958 85.8608 372.010417 99.6651 372.010417 99.6651 318.015625 77.02415 318.015625"></polygon>
            <polygon id="Shape" points="119.13055 266.744271 127.9672 266.744271 127.9672 309.130729 141.7715 309.130729 141.7715 255.135937 119.13055 255.135937"></polygon>
            <path d="M96.8181,191.570833 C94.25945,190.477083 91.3431,189.820833 88.5618,189.820833 C85.7878,189.820833 83.0138,190.407813 80.38215,191.432292 C72.2025,194.709896 68.18385,201.636979 68.18385,210.325 L68.18385,225.349479 C68.18385,233.964583 72.2755,240.822396 80.30915,244.176563 C82.93715,245.277604 85.71115,245.853646 88.5618,245.853646 C91.63145,245.853646 94.69745,245.190104 97.47145,243.888542 C105.07075,240.388542 108.50175,233.450521 108.50175,225.349479 L108.50175,210.325 C108.50175,201.863021 104.70575,195.005208 96.8181,191.570833 Z M94.69745,225.725 C94.69745,229.950521 93.31045,233.738542 88.3428,233.738542 C83.59415,233.738542 81.98815,229.873958 81.98815,225.725 L81.98815,209.964063 C81.98815,205.873438 83.59415,201.935938 88.3428,201.935938 C93.31045,201.935938 94.69745,205.727604 94.69745,209.964063 L94.69745,225.725 Z" id="Shape"></path>
            <polygon id="Shape" points="345.9671 266.744271 354.81105 266.744271 354.81105 309.130729 368.61535 309.130729 368.61535 255.135937 345.9671 255.135937"></polygon>
            <polygon id="Shape" points="345.9671 329.623958 354.81105 329.623958 354.81105 372.010417 368.61535 372.010417 368.61535 318.015625 345.9671 318.015625"></polygon>
            <path d="M365.7647,191.570833 C363.2097,190.477083 360.28605,189.820833 357.51205,189.820833 C354.73805,189.820833 351.9604,190.407813 349.32875,191.432292 C341.1491,194.709896 337.1341,201.636979 337.1341,210.325 L337.1341,225.349479 C337.1341,233.964583 341.22575,240.822396 349.2594,244.176563 C351.8874,245.277604 354.65775,245.853646 357.51205,245.853646 C360.57805,245.853646 363.64405,245.190104 366.4217,243.888542 C374.021,240.388542 377.44835,233.450521 377.44835,225.349479 L377.44835,210.325 C377.44835,201.863021 373.6487,195.005208 365.7647,191.570833 Z M363.64405,225.725 C363.64405,229.950521 362.25705,233.738542 357.2894,233.738542 C352.54075,233.738542 350.94205,229.873958 350.94205,225.725 L350.94205,209.964063 C350.94205,205.873438 352.54075,201.935938 357.2894,201.935938 C362.25705,201.935938 363.64405,205.727604 363.64405,209.964063 L363.64405,225.725 Z" id="Shape"></path>
            <polygon id="Shape" points="285.4063 309.130729 285.4063 255.135937 262.769 255.135937 262.769 266.744271 271.602 266.744271 271.602 309.130729"></polygon>
            <polygon id="Shape" points="304.87175 266.744271 313.7084 266.744271 313.7084 309.130729 327.51635 309.130729 327.51635 255.135937 304.87175 255.135937"></polygon>
            <path d="M282.5593,318.748437 C280.00065,317.661979 277.0843,317.002083 274.30665,317.002083 C271.52535,317.002083 268.75135,317.581771 266.127,318.60625 C257.94735,321.8875 253.9214,328.818229 253.9214,337.495312 L253.9214,352.530729 C253.9214,361.134896 258.0167,368.003646 266.05035,371.357812 C268.6747,372.447917 271.45235,373.034896 274.30665,373.034896 C277.3763,373.034896 280.43865,372.371354 283.209,371.058854 C290.8083,367.558854 294.2393,360.631771 294.2393,352.530729 L294.2393,337.495312 C294.2466,329.036979 290.4506,322.190104 282.5593,318.748437 Z M280.43865,352.895312 C280.43865,357.131771 279.0553,360.919792 274.084,360.919792 C269.339,360.919792 267.73665,357.055208 267.73665,352.895312 L267.73665,337.145312 C267.73665,333.054687 269.339,329.109896 274.084,329.109896 C279.0553,329.109896 280.43865,332.9125 280.43865,337.145312 L280.43865,352.895312 Z" id="Shape"></path>
            <path d="M48.0322,255.86875 C45.47355,254.771354 42.55355,254.122396 39.77225,254.122396 C36.99825,254.122396 34.22425,254.698437 31.5999,255.722917 C23.4166,259.004167 19.39795,265.934896 19.39795,274.626562 L19.39795,289.651042 C19.39795,298.255208 23.4896,305.113021 31.52325,308.478125 C34.1549,309.564583 36.9289,310.144271 39.77225,310.144271 C42.84555,310.144271 45.91155,309.491667 48.6819,308.179167 C56.2812,304.675521 59.7122,297.752083 59.7122,289.651042 L59.7122,274.626562 C59.71585,266.153646 55.9162,259.299479 48.0322,255.86875 Z M45.9079,290.011979 C45.9079,294.248437 44.5209,298.036458 39.55325,298.036458 C34.80825,298.036458 33.20225,294.164583 33.20225,290.011979 L33.20225,274.251042 C33.20225,270.171354 34.80825,266.2375 39.55325,266.2375 C44.5209,266.2375 45.9079,270.025521 45.9079,274.251042 L45.9079,290.011979 L45.9079,290.011979 Z" id="Shape"></path>
            <polygon id="Shape" points="187.4257 244.840104 187.4257 190.848958 164.78475 190.848958 164.78475 202.446354 173.62505 202.446354 173.62505 244.840104"></polygon>
            <polygon id="Shape" points="213.5743 266.744271 222.4146 266.744271 222.4146 309.130729 236.21525 309.130729 236.21525 255.135937 213.5743 255.135937"></polygon>
            <polygon id="Shape" points="213.5743 329.623958 222.4146 329.623958 222.4146 372.010417 236.21525 372.010417 236.21525 318.015625 213.5743 318.015625"></polygon>
            <path d="M184.58235,255.86875 C182.02005,254.771354 179.1037,254.122396 176.3224,254.122396 C173.5484,254.122396 170.7744,254.698437 168.1464,255.722917 C159.9631,259.004167 155.9481,265.934896 155.9481,274.626562 L155.9481,289.651042 C155.9481,298.255208 160.03975,305.113021 168.0734,308.478125 C170.70505,309.564583 173.47905,310.144271 176.3224,310.144271 C179.3957,310.144271 182.4617,309.491667 185.23205,308.179167 C192.83135,304.675521 196.26235,297.752083 196.26235,289.651042 L196.26235,274.626562 C196.266,266.153646 192.46635,259.299479 184.58235,255.86875 Z M182.4617,290.011979 C182.4617,294.248437 181.0747,298.036458 176.10705,298.036458 C171.36205,298.036458 169.75605,294.164583 169.75605,290.011979 L169.75605,274.251042 C169.75605,270.171354 171.36205,266.2375 176.10705,266.2375 C181.0747,266.2375 182.4617,270.025521 182.4617,274.251042 L182.4617,290.011979 Z" id="Shape"></path>
            <path d="M316.39115,180.884896 L320.5485,180.888542 L363.01625,180.965104 L364.5675,179.408333 C375.10505,168.45625 381.6057,153.599479 381.6057,137.251562 C381.6057,107.228125 359.73125,82.2213542 331.0824,77.259375 C331.02035,77.2484375 330.96195,77.2375 330.89625,77.2338542 C325.83005,48.7088542 300.8604,26.9651042 270.87565,26.9651042 C242.6283,26.9651042 218.81935,46.2588542 211.9245,72.3447917 C201.4636,63.9302083 188.18855,58.8770833 173.74915,58.8770833 C143.3848,58.8770833 118.13775,81.1677083 113.5278,110.228646 C103.9794,104.019792 92.59505,100.395833 80.37485,100.395833 C46.7547,100.395833 19.39795,127.721354 19.39795,161.299479 C19.39795,167.913021 20.47105,174.285937 22.43475,180.246875 L22.4384,180.3125 L22.4603,180.3125 L43.57555,180.348958 L117.10115,180.494792 L138.2164,180.534896 L167.1317,180.596875 L170.45685,180.600521 C171.54455,180.658854 172.64685,180.688021 173.74915,180.688021 L173.74915,180.600521 L180.3593,180.615104 C180.4104,180.604167 180.46515,180.600521 180.5199,180.593229 L202.82505,180.651562 C204.8654,185.876042 207.62845,190.728646 210.95725,195.14375 C206.81815,198.866146 204.73765,204.134375 204.73765,210.325 L204.73765,225.349479 C204.73765,233.964583 208.8293,240.822396 216.86295,244.176562 C219.49095,245.277604 222.2613,245.853646 225.1156,245.853646 C228.18525,245.853646 231.2549,245.190104 234.02525,243.888542 C241.6209,240.388542 245.0519,233.450521 245.0519,225.349479 L245.0519,217.736979 C247.9354,218.447917 250.8992,218.940104 253.92505,219.224479 L253.92505,225.349479 C253.92505,233.964583 258.02035,240.822396 266.054,244.176562 C268.67835,245.277604 271.456,245.853646 274.3103,245.853646 C277.37995,245.853646 280.4423,245.190104 283.21265,243.888542 C290.81195,240.388542 294.24295,233.450521 294.24295,225.349479 L294.24295,208.731771 C296.9695,206.846875 299.5172,204.732292 301.90065,202.442708 L313.70475,202.442708 L313.70475,244.836458 L327.5127,244.836458 L327.5127,190.848958 L311.30305,190.848958 C313.2777,187.698958 315.01145,184.384896 316.39115,180.884896 Z M129.21915,161.492708 L121.8425,161.481771 L38.91085,161.317708 L38.91085,161.292187 C38.91085,138.451042 57.5149,119.868229 80.3785,119.868229 C96.04795,119.868229 109.7099,128.603646 116.75805,141.436979 C116.7252,141.345833 116.69235,141.251042 116.66315,141.152604 C119.53205,148.772396 123.8938,155.670312 129.3907,161.496354 L129.21915,161.496354 L129.21915,161.492708 Z M231.25125,225.725 C231.25125,229.950521 229.8606,233.738542 224.8966,233.738542 C220.14795,233.738542 218.54195,229.873958 218.54195,225.725 L218.54195,209.964062 C218.54195,208.009896 218.92155,206.103125 219.82675,204.630208 C223.31615,207.648958 227.145,210.28125 231.2549,212.454167 L231.2549,225.725 L231.25125,225.725 Z M280.43865,225.725 C280.43865,229.950521 279.0553,233.738542 274.084,233.738542 C269.339,233.738542 267.73665,229.873958 267.73665,225.725 L267.73665,218.951042 C272.13855,218.367708 276.38715,217.306771 280.43865,215.833854 L280.43865,225.725 Z M259.6592,200.018229 C237.81395,200.018229 219.8888,183.076042 218.312,161.660417 C218.312,161.660417 218.312,161.660417 218.312,161.649479 C218.30105,161.572917 218.2901,161.503646 218.2901,161.427083 L198.748,161.386979 C198.75165,161.459896 198.75895,161.540104 198.76625,161.620312 L171.6066,161.558333 C149.73215,160.420833 132.2815,141.885417 132.2815,119.7625 C132.28515,96.9432292 150.88555,78.3677083 173.75645,78.3677083 C196.6237,78.3677083 215.2241,96.9395833 215.2241,119.784375 L234.73335,119.784375 C234.73335,118.646875 234.68955,117.520312 234.6348,116.404687 C234.61655,116.083854 234.5764,115.755729 234.55815,115.442187 C234.49975,114.629167 234.4377,113.816146 234.3428,113.010417 C234.3063,112.707812 234.26615,112.416146 234.22965,112.120833 C234.1165,111.234896 233.99605,110.359896 233.8464,109.492187 C233.82085,109.339062 233.7953,109.189583 233.7734,109.040104 C233.21495,106.003125 232.4521,103.035417 231.4666,100.158854 L229.42625,87.8651042 C229.42625,65.0239583 248.023,46.4411458 270.89025,46.4411458 C290.16955,46.4411458 306.40475,59.65 311.04025,77.4817708 C311.095,77.4708333 311.15705,77.4635417 311.22275,77.45625 C312.02575,80.6536458 312.45645,84.0114583 312.45645,87.4640625 C312.45645,90.6942708 312.0732,93.8479167 311.36145,96.8666667 C314.3362,96.1921875 317.44965,95.8166667 320.63975,95.8166667 C324.2788,95.8166667 327.81565,96.290625 331.1773,97.1802083 C348.95645,101.850521 362.10375,118.038021 362.10375,137.236979 C362.10375,146.475521 359.056,155.017708 353.91315,161.919271 L300.94435,161.853646 C300.95895,161.89375 300.98815,161.933854 300.9991,161.973958 C300.6633,166.4875 299.6194,170.505208 297.94405,174.504687 C291.68795,189.463542 276.8799,200.018229 259.6592,200.018229 Z" id="Shape"></path>
        </g>
    </g>
</svg>