<?xml version="1.0" encoding="UTF-8" standalone="no"?>
<svg width="400px" height="400px" viewBox="0 0 400 400" version="1.1" xmlns="http://www.w3.org/2000/svg" xmlns:xlink="http://www.w3.org/1999/xlink">
    <!-- Generator: Sketch 41 (35326) - http://www.bohemiancoding.com/sketch -->
    <title>browse copy</title>
    <desc>Created with Sketch.</desc>
    <defs></defs>
    <g id="poster-terminology-service" stroke="none" stroke-width="1" fill="none" fill-rule="evenodd">
        <g id="browse-copy" fill="#000000">
            <g id="Group" transform="translate(20.000000, 77.000000)">
                <path d="M240.893068,100.754175 L287.007343,54.403414 C286.000477,52.4774015 285.376908,50.3224425 285.376908,47.9986355 C285.376908,47.00558 285.491324,46.0354191 285.688693,45.0996003 L256.343722,26.2830591 C254.501616,28.8358127 251.526787,30.5099841 248.140059,30.5099841 C242.542232,30.5099841 238.005618,25.9711195 238.005618,20.3705156 C238.005618,14.7699116 242.542232,10.2310471 248.140059,10.2310471 C253.737886,10.2310471 258.2745,14.7699116 258.2745,20.3705156 C258.2745,20.4849888 258.243036,20.5880148 258.240175,20.702488 L288.071416,39.8309688 C289.999334,37.1866366 292.819701,35.2577623 296.103454,34.4879296 L295.565697,17.9436826 C291.609746,16.9449034 288.669242,13.3905089 288.669242,9.12351835 C288.669242,4.08383334 292.753911,1.10844667e-12 297.788237,1.10844667e-12 C302.822563,1.10844667e-12 306.907232,4.08097151 306.907232,9.12351835 C306.907232,12.9268922 304.575996,16.1807945 301.272219,17.5516117 L301.815698,34.3476999 C306.13206,35.1461508 309.704715,37.9507456 311.629772,41.7512576 L349.287102,35.2692096 C349.661816,30.0091636 353.998201,25.8480608 359.350032,25.8480608 C364.947859,25.8480608 369.484473,30.3869253 369.484473,35.9875293 C369.484473,41.5881332 364.947859,46.1269977 359.350032,46.1269977 C355.528521,46.1269977 352.244768,43.9892097 350.517079,40.8669517 L313.105745,47.3060723 C313.114327,47.5407424 313.174395,47.7639653 313.174395,48.0014973 C313.174395,50.6858951 312.379201,53.1699647 311.06055,55.2963054 L337.530807,81.4820623 C338.772226,80.8467357 340.162386,80.4546648 341.652661,80.4546648 C346.686987,80.4546648 350.771656,84.54136 350.771656,89.5781832 C350.771656,94.6150064 346.686987,98.7017015 341.652661,98.7017015 C336.618335,98.7017015 332.533666,94.6178682 332.533666,89.5781832 C332.533666,88.1243729 332.90552,86.7707266 333.509067,85.5515865 L307.136065,59.4574082 C304.896362,60.9970735 302.193272,61.9071358 299.272791,61.9071358 C296.000479,61.9071358 293.034232,60.7309231 290.660089,58.8421144 L243.140553,106.609074 L240.893068,100.754175 Z M249.574734,123.370687 L285.551393,130.768522 C285.517068,131.111942 285.411233,131.443914 285.411233,131.798781 C285.411233,137.399385 289.927824,141.93825 295.525651,141.93825 C296.335147,141.93825 297.104598,141.818053 297.856887,141.640619 L307.422106,160.560186 C304.781945,162.391758 303.045675,165.433885 303.045675,168.890977 C303.045675,170.37913 303.380343,171.781427 303.955286,173.054942 L289.447274,187.567289 C288.214437,186.949133 286.844299,186.565648 285.371187,186.565648 C280.334001,186.565648 276.249332,190.649481 276.249332,195.689166 C276.249332,200.728851 280.336861,204.812684 285.371187,204.812684 C290.411233,204.812684 294.493042,200.725989 294.493042,195.689166 C294.493042,194.215323 294.109747,192.844506 293.489037,191.611056 L307.696705,177.39634 C309.281374,178.418014 311.152084,179.024722 313.174395,179.024722 C315.974739,179.024722 318.506204,177.891437 320.339728,176.057003 L346.947284,193.889074 C346.140648,195.251306 345.645797,196.819589 345.645797,198.516655 C345.645797,203.559202 349.730466,207.643036 354.767652,207.643036 C359.804838,207.643036 363.889507,203.55634 363.889507,198.516655 C363.889507,193.47697 359.801978,189.393137 354.767652,189.393137 C353.603464,189.393137 352.496484,189.630669 351.475317,190.031325 L323.080003,171.000147 C323.225884,170.316169 323.308836,169.612159 323.308836,168.885254 C323.308836,163.28465 318.772222,158.745785 313.174395,158.745785 C313.088583,158.745785 313.008491,158.76868 312.925539,158.771542 L302.819702,138.784511 C304.555973,136.964387 305.637209,134.511797 305.637209,131.795919 C305.637209,126.195315 301.100594,121.656451 295.502767,121.656451 C292.350593,121.656451 289.573133,123.12457 287.713864,125.382555 L247.152616,117.060855 L249.574734,123.370687 Z" id="Combined-Shape"></path>
                <path d="M238.086,62.1201406 L210.782404,89.5637565 C206.890165,85.8526838 201.654389,83.5438696 195.851738,83.5438696 C191.450651,83.5438696 187.370942,84.8746755 183.951841,87.1254344 L146.689899,50.08616 C149.466244,46.9779691 151.202575,42.9185647 151.202575,38.4215127 C151.202575,28.712882 143.333289,20.8441575 133.629472,20.8441575 C123.925655,20.8441575 116.056368,28.712882 116.056368,38.4215127 C116.056368,48.1301433 123.925655,56.0077995 133.629472,56.0077995 C135.530956,56.0077995 137.325314,55.6282072 139.034864,55.0699832 L177.667125,93.471324 C175.462117,96.8697913 174.154289,100.902401 174.154289,105.252082 C174.154289,106.328338 174.319442,107.364401 174.471203,108.400465 L123.331999,127.308626 C120.823469,123.253687 116.373282,120.520623 111.253559,120.520623 C103.3932,120.520623 97.0192115,126.897773 97.0192115,134.757566 C97.0192115,142.617359 103.3932,148.994509 111.253559,148.994509 C118.663097,148.994509 124.679999,143.309557 125.354,136.070509 L177.765323,116.77829 C180.854119,121.668331 187.397723,125.263293 191.8613,126.482455 L191.8613,158.515577 C187.397723,160.395675 181.85396,165.67424 181.85396,171.966541 C181.85396,179.835265 188.107432,186.20795 195.972255,186.20795 C203.832614,186.20795 210.385146,179.830799 210.385146,171.966541 C210.385146,165.67424 205.256495,160.395675 200.792918,158.515577 L200.792918,126.482455 C205.256495,124.995346 213.482868,120.015988 216.165478,113.420014 L252.752263,120.943308 L250.366236,111.373478 L217.482233,104.626871 C217.406353,101.956328 216.879651,99.4063609 215.919981,97.0618204 L240.609979,72.2432676 L238.086,62.1201406 Z" id="Combined-Shape"></path>
                <path d="M111.446868,14.1898517 C49.9933504,14.1898517 3.41060513e-13,64.2114331 3.41060513e-13,125.692005 C3.41060513e-13,187.172577 49.9933504,237.194158 111.446868,237.194158 C132.875529,237.194158 152.898244,231.097564 169.906751,220.57176 L230.424115,281.122576 C235.283198,285.980639 241.743688,288.656691 248.612244,288.656691 C255.4808,288.656691 261.93786,285.980639 266.796943,281.122576 C271.656027,276.264513 274.330752,269.797388 274.330752,262.925424 C274.330752,256.053461 271.656027,249.589767 266.796943,244.731704 L206.276151,184.180888 C216.800164,167.163944 222.893736,147.131296 222.893736,125.692005 C222.893736,64.2114331 172.900385,14.1898517 111.446868,14.1898517 Z M111.446868,202.885803 C68.9050266,202.885803 34.291344,168.258381 34.291344,125.692005 C34.291344,83.1256292 68.9050266,48.4982066 111.446868,48.4982066 C153.988709,48.4982066 188.602392,83.1256292 188.602392,125.692005 C188.602392,168.258381 153.988709,202.885803 111.446868,202.885803 Z" id="Shape" stroke="#FFFFFF" stroke-width="7" transform="translate(137.165376, 151.423271) scale(-1, 1) translate(-137.165376, -151.423271) "></path>
            </g>
        </g>
    </g>
</svg>