<?xml version="1.0" encoding="UTF-8" standalone="no"?>
<svg width="400px" height="400px" viewBox="0 0 400 400" version="1.1" xmlns="http://www.w3.org/2000/svg" xmlns:xlink="http://www.w3.org/1999/xlink">
    <!-- Generator: Sketch 41 (35326) - http://www.bohemiancoding.com/sketch -->
    <title>browse</title>
    <desc>Created with Sketch.</desc>
    <defs>
        <path d="M116.976073,128.283582 C66.2590512,128.283582 25,169.602649 25,220.387127 C25,271.171604 66.2590512,312.490672 116.976073,312.490672 C134.660949,312.490672 151.185512,307.454733 165.222475,298.760159 L215.166898,348.776634 C219.177054,352.789515 224.508837,355 230.177393,355 C235.845949,355 241.174901,352.789515 245.185058,348.776634 C249.195215,344.763754 251.40264,339.421748 251.40264,333.745336 C251.40264,328.068924 249.195215,322.729752 245.185058,318.716871 L195.237805,268.700396 C203.923177,254.643978 208.952145,238.096513 208.952145,220.387127 C208.952145,169.602649 167.693094,128.283582 116.976073,128.283582 Z M116.976073,284.151119 C81.8666832,284.151119 53.30033,255.548009 53.30033,220.387127 C53.30033,185.226244 81.8666832,156.623134 116.976073,156.623134 C152.085462,156.623134 180.651815,185.226244 180.651815,220.387127 C180.651815,255.548009 152.085462,284.151119 116.976073,284.151119 Z" id="path-1"></path>
        <mask id="mask-2" maskContentUnits="userSpaceOnUse" maskUnits="objectBoundingBox" x="-9" y="-9" width="244.40264" height="244.716418">
            <rect x="16" y="119.283582" width="244.40264" height="244.716418" fill="white"></rect>
            <use xlink:href="#path-1" fill="black"></use>
        </mask>
    </defs>
    <g id="poster-terminology-service" stroke="none" stroke-width="1" fill="none" fill-rule="evenodd">
        <g id="browse">
            <path d="M361.46156,106.675137 C368.939609,106.675137 375,100.606346 375,93.1179332 C375,85.6295201 368.939609,79.5607295 361.46156,79.5607295 C354.312132,79.5607295 348.519223,85.1244253 348.018649,92.1574878 L297.712815,100.824456 C295.141161,95.7428956 290.368507,91.9929493 284.602347,90.9253626 L283.876322,68.4677761 C288.289785,66.6348942 291.404047,62.2841912 291.404047,57.1988049 C291.404047,50.4565545 285.947402,45 279.222125,45 C272.496848,45 267.040204,50.460381 267.040204,57.1988049 C267.040204,62.9040803 270.968377,67.6565632 276.253068,68.9920033 L276.97145,91.1128599 C272.584736,92.1421819 268.817052,94.7212266 266.241577,98.2568902 L226.390492,72.680726 C226.394313,72.5276669 226.436346,72.3899138 226.436346,72.2368548 C226.436346,64.7484416 220.375954,58.679651 212.897905,58.679651 C205.419856,58.679651 199.359465,64.7484416 199.359465,72.2368548 C199.359465,79.7252679 205.419856,85.7940585 212.897905,85.7940585 C217.422182,85.7940585 221.396209,83.5555702 223.857049,80.1423538 L263.058534,105.301432 C262.794873,106.55269 262.642025,107.849865 262.642025,109.177652 C262.642025,112.284751 263.475043,115.166087 264.820098,117.741305 L196.317806,186.656134 C192.985737,183.476333 188.503493,181.498045 183.535959,181.498045 C179.768275,181.498045 176.275717,182.638335 173.348693,184.566878 L141.449483,152.830088 C143.826257,150.166861 145.312696,146.688594 145.312696,142.835333 C145.312696,134.516575 138.575956,127.774325 130.26871,127.774325 C121.961465,127.774325 115.224725,134.516575 115.224725,142.835333 C115.224725,151.154092 121.961465,157.903995 130.26871,157.903995 C131.896533,157.903995 133.432647,157.578745 134.896159,157.100435 L167.968472,190.004301 C166.080809,192.916249 164.961203,196.371556 164.961203,200.098544 C164.961203,201.020724 165.102587,201.908467 165.232507,202.796209 L121.453248,218.997508 C119.305745,215.523068 115.496029,213.181265 111.113136,213.181265 C104.384038,213.181265 98.9273927,218.645472 98.9273927,225.380069 C98.9273927,232.114667 104.384038,237.578874 111.113136,237.578874 C117.456294,237.578874 122.607245,232.707771 123.184243,226.505053 L168.052538,209.974678 C170.696794,214.164669 176.298644,217.244982 180.119824,218.28961 L180.119824,245.736921 C176.298644,247.347867 171.552738,251.870761 171.552738,257.262266 C171.552738,264.004516 176.906211,269.464897 183.639131,269.464897 C190.368228,269.464897 195.97772,264.00069 195.97772,257.262266 C195.97772,251.870761 191.587185,247.347867 187.766005,245.736921 L187.766005,218.28961 C191.587185,217.015393 198.629619,212.748873 200.926148,207.097168 L262.875117,219.846985 C262.829263,220.306162 262.68788,220.750034 262.68788,221.224517 C262.68788,228.71293 268.721523,234.78172 276.199572,234.78172 C277.280966,234.78172 278.308863,234.621008 279.313833,234.383767 L292.091859,259.680599 C288.56491,262.129543 286.245454,266.197087 286.245454,270.81947 C286.245454,272.809237 286.692532,274.68421 287.460589,276.386992 L268.079565,295.791051 C266.432636,294.964532 264.602291,294.451784 262.634383,294.451784 C255.905285,294.451784 250.44864,299.912165 250.44864,306.650589 C250.44864,313.389013 255.909106,318.849394 262.634383,318.849394 C269.367302,318.849394 274.820126,313.385186 274.820126,306.650589 C274.820126,304.679954 274.308088,302.847072 273.478892,301.197861 L292.458692,282.191756 C294.575626,283.557808 297.074678,284.36902 299.776252,284.36902 C303.517187,284.36902 306.898931,282.853736 309.348308,280.400965 L344.892923,304.243736 C343.815351,306.065138 343.154287,308.162047 343.154287,310.431147 C343.154287,317.173397 348.610931,322.633778 355.340029,322.633778 C362.069127,322.633778 367.525772,317.169571 367.525772,310.431147 C367.525772,303.692723 362.065306,298.232342 355.340029,298.232342 C353.784809,298.232342 352.306012,298.54994 350.941851,299.085646 L313.008998,273.639582 C313.203878,272.725055 313.314692,271.783741 313.314692,270.811817 C313.314692,263.323403 307.254301,257.254613 299.776252,257.254613 C299.661617,257.254613 299.554624,257.285225 299.443809,257.289051 L285.943581,230.564944 C288.263037,228.131305 289.707443,224.852016 289.707443,221.22069 C289.707443,213.732277 283.647052,207.663486 276.169002,207.663486 C271.958062,207.663486 268.247696,209.626469 265.763929,212.645558 L202.053397,199.562837 C201.988437,197.274605 201.537537,195.089687 200.715984,193.080787 L269.699745,123.676169 C272.871324,126.201643 276.833888,127.774325 281.205318,127.774325 C285.106742,127.774325 288.717757,126.557505 291.709741,124.498861 L326.94102,159.388668 C326.134751,161.018746 325.637998,162.828669 325.637998,164.772519 C325.637998,171.510943 331.094643,176.971324 337.819919,176.971324 C344.545196,176.971324 350.001841,171.507117 350.001841,164.772519 C350.001841,158.037922 344.545196,152.573714 337.819919,152.573714 C335.829085,152.573714 333.971991,153.097941 332.313599,153.947419 L296.9524,118.935165 C298.713964,116.092094 299.776252,112.770713 299.776252,109.181479 C299.776252,108.863881 299.696007,108.565416 299.684544,108.251645 L349.661756,99.6420745 C351.969749,103.81676 356.356463,106.675137 361.46156,106.675137 Z" id="Shape" fill="#000000"></path>
            <g id="Shape" transform="translate(138.201320, 241.641791) scale(-1, 1) translate(-138.201320, -241.641791) ">
                <use fill="#000000" fill-rule="evenodd" xlink:href="#path-1"></use>
                <use stroke="#FFFFFF" mask="url(#mask-2)" stroke-width="18" xlink:href="#path-1"></use>
            </g>
        </g>
    </g>
</svg>