<?xml version="1.0" encoding="UTF-8" standalone="no"?>
<svg width="400px" height="400px" viewBox="0 0 400 400" version="1.1" xmlns="http://www.w3.org/2000/svg" xmlns:xlink="http://www.w3.org/1999/xlink">
    <!-- Generator: Sketch 41 (35326) - http://www.bohemiancoding.com/sketch -->
    <title>consume</title>
    <desc>Created with Sketch.</desc>
    <defs>
        <polygon id="path-1" points="339.562644 286.687931 339.562644 335.562644 192.938505 335.562644 192.938505 286.687931 168.501148 286.687931 168.501148 360 364 360 364 286.687931"></polygon>
        <mask id="mask-2" maskContentUnits="userSpaceOnUse" maskUnits="objectBoundingBox" x="-10" y="-10" width="215.498852" height="93.3120694">
            <rect x="158.501148" y="276.687931" width="215.498852" height="93.3120694" fill="white"></rect>
            <use xlink:href="#path-1" fill="black"></use>
        </mask>
        <polygon id="path-3" points="315.125287 237.813218 290.687931 237.813218 290.687931 164.501148 241.813218 164.501148 241.813218 237.813218 217.375861 237.813218 266.250574 311.125287"></polygon>
        <mask id="mask-4" maskContentUnits="userSpaceOnUse" maskUnits="objectBoundingBox" x="-10" y="-10" width="117.749426" height="166.624139">
            <rect x="207.375861" y="154.501148" width="117.749426" height="166.624139" fill="white"></rect>
            <use xlink:href="#path-3" fill="black"></use>
        </mask>
    </defs>
    <g id="poster-terminology-service" stroke="none" stroke-width="1" fill="none" fill-rule="evenodd">
        <g id="consume">
            <path d="M294.688538,79.1335771 C301.37343,79.1335771 306.791027,73.7084715 306.791027,67.0143152 C306.791027,60.320159 301.37343,54.8950533 294.688538,54.8950533 C288.297413,54.8950533 283.118928,59.8686369 282.671446,66.1557392 L237.70129,73.9034469 C235.402398,69.3608616 231.135955,66.0086525 225.981381,65.0542991 L225.332362,44.9786716 C229.277712,43.3401939 232.06166,39.4509473 232.06166,34.9049413 C232.06166,28.8778062 227.183773,24 221.171811,24 C215.15985,24 210.281962,28.8812269 210.281962,34.9049413 C210.281962,40.0050879 213.793495,44.2534998 218.517667,45.4472967 L219.159854,65.2219096 C215.238415,66.1420567 211.87035,68.4475556 209.568042,71.6082099 L173.943753,48.7447758 C173.947169,48.607951 173.984744,48.4848086 173.984744,48.3479838 C173.984744,41.6538275 168.567147,36.2287218 161.882255,36.2287218 C155.197364,36.2287218 149.779766,41.6538275 149.779766,48.3479838 C149.779766,55.04214 155.197364,60.4672457 161.882255,60.4672457 C165.926666,60.4672457 169.479188,58.4661821 171.67902,55.4149877 L206.722608,77.905574 C206.486912,79.0241173 206.350276,80.1837079 206.350276,81.3706636 C206.350276,84.1482082 207.09494,86.7239362 208.297332,89.0260145 L147.06072,150.631407 C144.082066,147.788871 140.07523,146.02041 135.634577,146.02041 C132.266512,146.02041 129.144391,147.039755 126.527821,148.763748 L98.011994,120.393114 C100.136676,118.012361 101.465456,114.903016 101.465456,111.45845 C101.465456,104.022019 95.4432468,97.994884 88.0171078,97.994884 C80.5909687,97.994884 74.5687594,104.022019 74.5687594,111.45845 C74.5687594,118.894881 80.5909687,124.928858 88.0171078,124.928858 C89.4722758,124.928858 90.8454625,124.638105 92.1537473,124.210527 L121.718252,153.624451 C120.030804,156.227544 119.029949,159.316365 119.029949,162.648051 C119.029949,163.472421 119.156337,164.266005 119.272477,165.059589 L80.1366557,179.5425 C78.2169271,176.436576 74.8112874,174.343156 70.8932646,174.343156 C64.8778871,174.343156 60,179.227803 60,185.248097 C60,191.268391 64.8778871,196.153038 70.8932646,196.153038 C76.5636376,196.153038 81.1682537,191.798587 81.6840527,186.25376 L121.793402,171.476675 C124.157196,175.222255 129.164886,177.975856 132.580774,178.909685 L132.580774,203.445803 C129.164886,204.885885 124.922354,208.92906 124.922354,213.748715 C124.922354,219.77585 129.708012,224.657077 135.726806,224.657077 C141.742183,224.657077 146.756706,219.77243 146.756706,213.748715 C146.756706,208.92906 142.831852,204.885885 139.415964,203.445803 L139.415964,178.909685 C142.831852,177.770618 149.127332,173.956625 151.18028,168.904367 L206.558645,180.301878 C206.517655,180.712353 206.391267,181.109145 206.391267,181.533302 C206.391267,188.227458 211.784953,193.652564 218.469844,193.652564 C219.43654,193.652564 220.355414,193.508898 221.253793,193.296819 L232.67652,215.910548 C229.523656,218.099746 227.450212,221.735866 227.450212,225.867977 C227.450212,227.6467 227.849871,229.322805 228.536464,230.844981 L211.211084,248.190953 C209.738836,247.452099 208.102626,246.993735 206.343444,246.993735 C200.328067,246.993735 195.45018,251.874962 195.45018,257.898677 C195.45018,263.922391 200.331483,268.803618 206.343444,268.803618 C212.362238,268.803618 217.236709,263.918971 217.236709,257.898677 C217.236709,256.137057 216.77898,254.498579 216.037733,253.024291 L233.004445,236.034064 C234.896846,237.255226 237.130837,237.980398 239.545869,237.980398 C242.890023,237.980398 245.913083,236.625832 248.102667,234.433213 L279.877251,255.747106 C278.91397,257.375322 278.323022,259.249822 278.323022,261.278251 C278.323022,267.305386 283.200909,272.186613 289.216287,272.186613 C295.231664,272.186613 300.109551,267.301965 300.109551,261.278251 C300.109551,255.254536 295.228248,250.373309 289.216287,250.373309 C287.82602,250.373309 286.504072,250.657221 285.2846,251.136108 L251.375087,228.388975 C251.549297,227.571447 251.648358,226.729974 251.648358,225.861136 C251.648358,219.16698 246.230761,213.741874 239.545869,213.741874 C239.443392,213.741874 239.347748,213.769239 239.248687,213.77266 L227.180357,189.883039 C229.253801,187.707524 230.545006,184.776051 230.545006,181.529881 C230.545006,174.835725 225.127409,169.410619 218.442517,169.410619 C214.678209,169.410619 211.361383,171.165398 209.141056,173.864269 L152.187967,162.169164 C152.129897,160.123632 151.726822,158.170457 150.992406,156.374631 L212.65942,94.3313984 C215.494606,96.5890086 219.036882,97.994884 222.944657,97.994884 C226.432278,97.994884 229.660291,96.9071264 232.334931,95.066832 L263.829412,126.256059 C263.10866,127.713244 262.664594,129.331197 262.664594,131.068873 C262.664594,137.092588 267.542482,141.973814 273.554443,141.973814 C279.566405,141.973814 284.444292,137.089167 284.444292,131.068873 C284.444292,125.048579 279.566405,120.163932 273.554443,120.163932 C271.774766,120.163932 270.114645,120.632557 268.63215,121.391935 L237.021528,90.0932484 C238.596252,87.5517266 239.545869,84.5826272 239.545869,81.3740842 C239.545869,81.0901726 239.474135,80.8233642 239.463888,80.5428732 L284.140278,72.8464748 C286.203474,76.5783729 290.124913,79.1335771 294.688538,79.1335771 Z" id="Shape" fill="#000000"></path>
            <g id="Shape">
                <use fill="#000000" fill-rule="evenodd" xlink:href="#path-1"></use>
                <use stroke="#FFFFFF" mask="url(#mask-2)" stroke-width="20" xlink:href="#path-1"></use>
            </g>
            <g id="Shape">
                <use fill="#000000" fill-rule="evenodd" xlink:href="#path-3"></use>
                <use stroke="#FFFFFF" mask="url(#mask-4)" stroke-width="20" xlink:href="#path-3"></use>
            </g>
        </g>
    </g>
</svg>