<?xml version="1.0" encoding="UTF-8" standalone="no"?>
<svg width="400px" height="400px" viewBox="0 0 400 400" version="1.1" xmlns="http://www.w3.org/2000/svg" xmlns:xlink="http://www.w3.org/1999/xlink">
    <!-- Generator: Sketch 41 (35326) - http://www.bohemiancoding.com/sketch -->
    <title>contribute</title>
    <desc>Created with Sketch.</desc>
    <defs>
        <path d="M361.375799,278.503386 C357.846934,274.513464 347.863262,273.250875 339.833764,274.474451 C335.847389,275.080919 277.498762,292.274825 277.498762,292.274825 C279.155023,297.470591 281.88945,306.964833 272.008629,316.678964 C265.263,322.580503 254.871469,324.336069 241.380211,324.070074 C227.906686,323.804079 213.29825,321.700947 202.048442,320.300041 C198.395446,319.849623 188.252176,318.505462 188.252176,318.505462 C188.252176,318.505462 195.395024,315.214219 205.070143,314.891479 C217.153401,314.490714 226.654737,314.579378 232.137777,314.891479 C238.135074,315.231952 246.756853,315.980285 250.35665,316.115055 C266.823503,316.728617 270.749587,306.159755 270.824065,301.95349 C271.036861,290.083028 264.326698,286.142758 243.504623,284.404925 C230.119763,283.291293 215.748949,282.39755 205.733357,281.134962 C186.418585,278.691356 172.551388,273.250875 165.475925,272.580568 C160.6029,272.112417 147.987652,269.750383 136.003698,279.670217 C99.6617109,309.738273 33.9964534,328.570707 34,328.609719 C43.9091941,361.398015 98.6154646,373.665697 98.6154646,373.665697 C121.863413,352.655652 147.632992,350.063089 169.671551,349.258011 C173.46641,349.119694 210.418412,349.116147 244.540229,353.216014 C251.402896,353.698352 257.276062,350.016983 257.276062,350.016983 C308.474747,317.285433 352.129819,299.357381 352.129819,299.357381 C362.489431,295.463217 365.532412,290.82072 365.372815,287.252843 C365.071354,280.773209 361.414812,278.549492 361.375799,278.503386 Z" id="path-1"></path>
        <mask id="mask-2" maskContentUnits="userSpaceOnUse" maskUnits="objectBoundingBox" x="-6" y="-6" width="343.378718" height="113.665697">
            <rect x="28" y="266" width="343.378718" height="113.665697" fill="white"></rect>
            <use xlink:href="#path-1" fill="black"></use>
        </mask>
    </defs>
    <g id="poster-terminology-service" stroke="none" stroke-width="1" fill="none" fill-rule="evenodd">
        <g id="contribute">
            <path d="M293.789225,108.392153 C300.505469,108.392153 305.948474,102.941604 305.948474,96.216052 C305.948474,89.4905002 300.505469,84.0399508 293.789225,84.0399508 C287.368126,84.0399508 282.165353,89.0368605 281.715774,95.3534493 L236.534707,103.137494 C234.225033,98.5736036 229.938581,95.2056727 224.759832,94.2468434 L224.107769,74.0770614 C228.071623,72.4308992 230.868628,68.5234121 230.868628,63.9560854 C230.868628,57.9006831 225.967863,53 219.927706,53 C213.887548,53 208.986783,57.9041198 208.986783,63.9560854 C208.986783,69.0801517 212.514785,73.3484886 217.261113,74.5478844 L217.906312,94.4152399 C213.966482,95.3397026 210.582621,97.6560142 208.269515,100.831492 L172.478148,77.8608286 C172.48158,77.7233621 172.519331,77.5996421 172.519331,77.4621756 C172.519331,70.7366238 167.076325,65.2860744 160.360082,65.2860744 C153.643838,65.2860744 148.200833,70.7366238 148.200833,77.4621756 C148.200833,84.1877274 153.643838,89.6382767 160.360082,89.6382767 C164.423461,89.6382767 167.992645,87.6278282 170.202793,84.5623238 L205.410736,107.158391 C205.173934,108.28218 205.036658,109.447209 205.036658,110.639731 C205.036658,113.430303 205.784814,116.018111 206.992845,118.330986 L145.469034,180.225308 C142.47641,177.36944 138.450783,175.592684 133.989302,175.592684 C130.605441,175.592684 127.468678,176.61681 124.839836,178.348889 L96.19027,149.845196 C98.3249166,147.453278 99.6599287,144.32935 99.6599287,140.86863 C99.6599287,133.397322 93.6094753,127.341919 86.1485077,127.341919 C78.6875402,127.341919 72.6370868,133.397322 72.6370868,140.86863 C72.6370868,148.339937 78.6875402,154.402213 86.1485077,154.402213 C87.6105005,154.402213 88.9901274,154.110097 90.3045481,153.680514 L120.00771,183.232389 C118.312348,185.84769 117.306799,188.950998 117.306799,192.298309 C117.306799,193.126545 117.433779,193.923851 117.550464,194.721157 L78.2310965,209.271993 C76.3023643,206.151502 72.8807522,204.048264 68.944354,204.048264 C62.9007643,204.048264 58,208.95582 58,215.004349 C58,221.052878 62.9007643,225.960434 68.944354,225.960434 C74.6413209,225.960434 79.2675326,221.585561 79.7857507,216.014728 L120.083212,201.168339 C122.458092,204.931486 127.489269,207.698001 130.921177,208.63621 L130.921177,233.287402 C127.489269,234.734238 123.22684,238.796375 123.22684,243.638635 C123.22684,249.694037 128.034942,254.598157 134.081964,254.598157 C140.125554,254.598157 145.163594,249.690601 145.163594,243.638635 C145.163594,238.796375 141.220332,234.734238 137.788424,233.287402 L137.788424,208.63621 C141.220332,207.491801 147.545338,203.659921 149.607915,198.583968 L205.246004,210.034933 C205.204821,210.447332 205.077841,210.845985 205.077841,211.272132 C205.077841,217.997684 210.496823,223.448233 217.213066,223.448233 C218.184296,223.448233 219.10748,223.303893 220.010071,223.09082 L231.486371,245.810607 C228.31872,248.010072 226.235552,251.663246 226.235552,255.814736 C226.235552,257.601801 226.637085,259.285767 227.326899,260.815082 L209.920262,278.242406 C208.44111,277.500087 206.797226,277.039574 205.029794,277.039574 C198.986204,277.039574 194.08544,281.943694 194.08544,287.995659 C194.08544,294.047625 198.989636,298.951745 205.029794,298.951745 C211.076815,298.951745 215.974148,294.044188 215.974148,287.995659 C215.974148,286.225777 215.514272,284.579615 214.769548,283.098413 L231.815834,266.028502 C233.717111,267.255391 235.961579,267.983964 238.387938,267.983964 C241.747775,267.983964 244.785014,266.623045 246.984867,264.420143 L278.908473,285.833998 C277.940675,287.46985 277.346955,289.353142 277.346955,291.391084 C277.346955,297.446486 282.247719,302.350606 288.291309,302.350606 C294.334898,302.350606 299.235663,297.443049 299.235663,291.391084 C299.235663,285.339118 294.331467,280.434998 288.291309,280.434998 C286.894522,280.434998 285.566374,280.720241 284.341183,281.201374 L250.272634,258.347558 C250.447662,257.526195 250.547187,256.680775 250.547187,255.807863 C250.547187,249.082311 245.104181,243.631762 238.387938,243.631762 C238.28498,243.631762 238.188887,243.659255 238.089362,243.662692 L225.964431,219.661029 C228.047599,217.475311 229.344861,214.530089 229.344861,211.268695 C229.344861,204.543143 223.901855,199.092594 217.185611,199.092594 C213.403649,199.092594 210.071266,200.855603 207.840526,203.567131 L150.620328,191.817176 C150.561985,189.762051 150.15702,187.799715 149.41916,185.995467 L211.375391,123.661252 C214.223875,125.92945 217.782763,127.341919 221.708866,127.341919 C225.212844,127.341919 228.455996,126.24906 231.14318,124.400135 L262.78537,155.735639 C262.061238,157.199658 261.61509,158.8252 261.61509,160.571025 C261.61509,166.622991 266.515854,171.527111 272.556012,171.527111 C278.596169,171.527111 283.496934,166.619554 283.496934,160.571025 C283.496934,154.522496 278.596169,149.61494 272.556012,149.61494 C270.767988,149.61494 269.10008,150.085763 267.610632,150.848702 L235.851758,119.403225 C237.433867,116.849784 238.387938,113.866759 238.387938,110.643168 C238.387938,110.357925 238.315868,110.089865 238.305572,109.808059 L283.191494,102.075564 C285.264366,105.824965 289.204196,108.392153 293.789225,108.392153 Z" id="Shape" fill="#000000"></path>
            <g id="Shape">
                <use fill="#000000" fill-rule="evenodd" xlink:href="#path-1"></use>
                <use stroke="#FFFFFF" mask="url(#mask-2)" stroke-width="12" xlink:href="#path-1"></use>
            </g>
        </g>
    </g>
</svg>